<?xml version="1.0" encoding="UTF-8" standalone="no"?>
<!-- Created with Inkscape (http://www.inkscape.org/) -->

<svg
   version="1.1"
   id="svg2"
   width="1412.3733"
   height="732.79999"
   viewBox="0 0 1412.3733 732.79999"
   xmlns="http://www.w3.org/2000/svg"
   xmlns:svg="http://www.w3.org/2000/svg">
  <defs
     id="defs6" />
  <g
     id="g8"
     transform="matrix(1.3333333,0,0,-1.3333333,0,732.8)">
    <g
       id="g10"
       transform="scale(0.1)">
      <path
         d="M 10592.8,9.35156 H 7.11719 V 5505.34 H 10592.8 V 9.35156"
         style="fill:#273845;fill-opacity:1;fill-rule:nonzero;stroke:none"
         id="path12" />
      <path
         d="m 6030.81,2748.96 c -2.97,0 -5.87,-0.28 -8.81,-0.44 -2.93,0.16 -5.83,0.44 -8.81,0.44 h -462.28 v 545.37 h 462.28 c 2.98,0 5.88,0.28 8.81,0.45 2.94,-0.17 5.84,-0.45 8.81,-0.45 150.36,0 272.68,-122.32 272.68,-272.69 0,-150.35 -122.32,-272.68 -272.68,-272.68 z m 597.46,272.68 c 0,329.45 -268.03,597.46 -597.46,597.46 -2.97,0 -5.87,-0.28 -8.81,-0.44 -2.93,0.16 -5.83,0.44 -8.81,0.44 h -624.66 c -89.69,0 -162.39,-72.69 -162.39,-162.38 V 2012.09 c 0,-89.69 72.7,-162.39 162.39,-162.39 89.68,0 162.38,72.7 162.38,162.39 v 412.1 h 416.76 c 3.15,-6.45 6.59,-12.82 10.68,-18.97 l 320.08,-480.52 c 31.28,-46.97 82.8,-72.4 135.3,-72.4 30.93,0 62.2,8.83 89.87,27.27 74.64,49.72 94.85,150.53 45.13,225.17 l -258.97,388.79 c 189.25,100.37 318.51,299.38 318.51,528.11"
         style="fill:#ffffff;fill-opacity:1;fill-rule:nonzero;stroke:none"
         id="path14" />
      <path
         d="m 3020.47,2166.72 h -885.8 v 1279.24 c 0,88.03 -71.37,159.41 -159.41,159.41 -88.03,0 -159.4,-71.38 -159.4,-159.41 V 2009.63 c 0,-0.79 -0.23,-1.52 -0.23,-2.32 0,-88.03 71.37,-159.4 159.4,-159.4 h 1045.44 c 88.03,0 159.4,71.37 159.4,159.4 0,88.04 -71.37,159.41 -159.4,159.41"
         style="fill:#ffffff;fill-opacity:1;fill-rule:nonzero;stroke:none"
         id="path16" />
      <path
         d="m 4795.63,2593.64 h -309.19 v 528.63 c 0,88.14 -71.46,159.59 -159.59,159.59 -88.14,0 -159.59,-71.45 -159.59,-159.59 v -528.63 h -586.01 l 306.18,800.79 c 31.48,82.33 -9.74,174.58 -92.07,206.06 -82.35,31.5 -174.58,-9.74 -206.05,-92.08 l -389,-1017.37 c -0.44,-1.14 -0.72,-2.31 -1.13,-3.45 -1.13,-3.19 -2.21,-6.39 -3.14,-9.67 -0.62,-2.17 -1.15,-4.35 -1.68,-6.53 -0.67,-2.78 -1.3,-5.56 -1.82,-8.39 -0.52,-2.8 -0.92,-5.6 -1.29,-8.41 -0.29,-2.26 -0.58,-4.51 -0.77,-6.79 -0.29,-3.36 -0.43,-6.71 -0.51,-10.05 -0.02,-1.24 -0.18,-2.45 -0.18,-3.7 0,-0.7 0.09,-1.37 0.1,-2.06 0.05,-3.39 0.25,-6.76 0.51,-10.12 0.16,-2.06 0.28,-4.11 0.52,-6.14 0.33,-2.89 0.81,-5.73 1.31,-8.58 0.42,-2.48 0.81,-4.96 1.34,-7.39 0.51,-2.26 1.14,-4.49 1.74,-6.73 0.76,-2.87 1.51,-5.75 2.43,-8.56 0.6,-1.83 1.32,-3.61 1.98,-5.42 1.12,-3.05 2.24,-6.09 3.54,-9.05 0.76,-1.73 1.64,-3.4 2.46,-5.1 1.38,-2.87 2.75,-5.74 4.3,-8.52 1.09,-1.96 2.32,-3.83 3.49,-5.75 1.46,-2.36 2.87,-4.74 4.44,-7.03 1.59,-2.3 3.32,-4.49 5.03,-6.71 1.35,-1.76 2.65,-3.56 4.07,-5.25 2.05,-2.46 4.26,-4.78 6.46,-7.12 1.28,-1.35 2.52,-2.76 3.84,-4.07 2.32,-2.28 4.78,-4.43 7.25,-6.58 1.43,-1.25 2.82,-2.54 4.29,-3.74 2.33,-1.88 4.77,-3.63 7.21,-5.39 1.85,-1.33 3.67,-2.69 5.57,-3.95 2.12,-1.39 4.34,-2.67 6.53,-3.97 2.45,-1.45 4.9,-2.89 7.43,-4.21 1.85,-0.97 3.77,-1.84 5.68,-2.74 3,-1.42 6.02,-2.79 9.12,-4.03 0.66,-0.26 1.28,-0.6 1.95,-0.86 1.36,-0.52 2.74,-0.87 4.11,-1.35 2.67,-0.94 5.34,-1.87 8.07,-2.67 2.49,-0.73 4.98,-1.32 7.47,-1.92 2.3,-0.55 4.58,-1.15 6.91,-1.59 3.57,-0.71 7.14,-1.19 10.72,-1.64 1.35,-0.17 2.68,-0.42 4.04,-0.56 5.23,-0.51 10.45,-0.82 15.64,-0.82 0.34,0 0.68,0.03 1.03,0.03 h 816.89 v -269.3 c 0,-88.14 71.45,-159.59 159.59,-159.59 88.13,0 159.59,71.45 159.59,159.59 v 269.3 h 309.19 c 88.14,0 159.59,71.45 159.59,159.59 0,88.14 -71.45,159.59 -159.59,159.59"
         style="fill:#ffffff;fill-opacity:1;fill-rule:nonzero;stroke:none"
         id="path18" />
      <path
         d="m 7422.85,3162.95 c 54.4,54.4 117.71,97.09 188.16,126.89 72.85,30.81 150.33,46.43 230.29,46.43 79.96,0 157.45,-15.62 230.3,-46.43 70.45,-29.8 133.75,-72.49 188.16,-126.89 54.4,-54.4 97.09,-117.71 126.88,-188.16 9.42,-22.27 17.42,-44.98 23.99,-68.05 H 7271.98 c 6.57,23.07 14.56,45.78 23.98,68.05 29.8,70.45 72.49,133.76 126.89,188.16 z M 8758.47,2744.5 c 0,123.74 -24.28,243.87 -72.15,357.05 -46.2,109.23 -112.31,207.3 -196.49,291.48 -84.17,84.18 -182.24,150.29 -291.48,196.49 -113.17,47.87 -233.3,72.14 -357.05,72.14 -123.74,0 -243.87,-24.27 -357.05,-72.14 -109.24,-46.2 -207.3,-112.31 -291.48,-196.49 -84.18,-84.18 -150.29,-182.25 -196.49,-291.48 -47.87,-113.18 -72.14,-233.31 -72.14,-357.05 0,-123.75 24.27,-243.88 72.14,-357.06 46.2,-109.23 112.31,-207.3 196.49,-291.48 84.18,-84.18 182.24,-150.28 291.48,-196.49 113.18,-47.87 233.31,-72.14 357.05,-72.14 123.75,0 243.88,24.27 357.05,72.14 109.24,46.21 207.31,112.31 291.49,196.49 63.53,63.54 63.53,166.55 0,230.09 -63.54,63.53 -166.55,63.53 -230.08,0 -54.41,-54.4 -117.71,-97.1 -188.16,-126.89 -72.85,-30.82 -150.34,-46.44 -230.3,-46.44 -79.96,0 -157.44,15.62 -230.29,46.44 -70.45,29.79 -133.76,72.49 -188.16,126.89 -54.4,54.4 -97.09,117.7 -126.89,188.15 -9.29,21.98 -17.2,44.39 -23.72,67.15 h 1324.75 v 0.47 c 89.29,0.65 161.48,73.23 161.48,162.68"
         style="fill:#ffffff;fill-opacity:1;fill-rule:nonzero;stroke:none"
         id="path20" />
    </g>
  </g>
</svg>
